<?xml version="1.0" encoding="UTF-8" standalone="no"?> <svg xmlns="http://www.w3.org/2000/svg" viewBox="0 0 512 512"><g id="solid"><path d="M208,104a8.009,8.009,0,0,0,8-8V64a8,8,0,0,0-16,0V96A8.009,8.009,0,0,0,208,104Z"/><path d="M112,104a8.009,8.009,0,0,0,8-8V64a8,8,0,0,0-16,0V96A8.009,8.009,0,0,0,112,104Z"/><path d="M143.984,214.972v9.012a8.009,8.009,0,0,0,8,8h43.859c.054-.082.114-.159.169-.242a71.737,71.737,0,1,0-14.74,16.242H151.984a24.027,24.027,0,0,1-24-24v-9.012a32.059,32.059,0,0,1-24-30.988v-16a8,8,0,0,1,4.422-7.155l16-8,7.156,14.311-11.578,5.789v11.055a16,16,0,1,0,32,0V172.929l-11.578-5.789,7.156-14.311,16,8a8,8,0,0,1,4.422,7.155v16A32.058,32.058,0,0,1,143.984,214.972Z"/><path d="M304,104a8.009,8.009,0,0,0,8-8V64a8,8,0,0,0-16,0V96A8.009,8.009,0,0,0,304,104Z"/><path d="M277.809,209.108a15.671,15.671,0,0,0-9.936-.549l4.721,4.721Z"/><path d="M95.8,113.688A23.938,23.938,0,0,1,88,96V88H32v48H68.145A87.849,87.849,0,0,1,95.8,113.688Z"/><path d="M133.809,313.108a15.671,15.671,0,0,0-9.936-.549l4.721,4.721Z"/><circle cx="128" cy="408" r="16"/><path d="M424,376V346.667l-15.807-21.076-.193-.258V376a8,8,0,0,0,16,0Z"/><path d="M364.6,423.1,354.234,392H341.12a24.053,24.053,0,0,1-23.536-19.3l-5.429-27.134a8,8,0,0,1,5.315-9.159l21.4-7.132,14.478-21.716A8,8,0,0,1,360,304h48a8.082,8.082,0,0,1,.936.055A8,8,0,0,1,414.4,307.2l33.62,44.824A72,72,0,1,0,364.6,423.1Z"/><path d="M222.223,174.467A88,88,0,1,1,57.639,152H32V448a8.009,8.009,0,0,0,8,8H472a8.009,8.009,0,0,0,8-8V152H214.381A87.81,87.81,0,0,1,222.223,174.467ZM128,440a32,32,0,1,1,32-32A32.036,32.036,0,0,1,128,440Zm45-137.753L157.183,314.9a32.032,32.032,0,1,1-10-12.492L163,289.753A8,8,0,0,1,173,302.247ZM200,304h16v16H200Zm0,32h48v16H200Zm0,48h16v16H200Zm56,48H200V416h56ZM376,200h72v16H376Zm72,32v16H424V232ZM344,200h16v16H344Zm0,32h64v16H344Zm-72-40a31.836,31.836,0,0,1,19.186,6.406L307,185.753A8,8,0,1,1,317,198.247L301.183,210.9A31.993,31.993,0,1,1,272,192ZM232,304h70.285c.125-.191.237-.388.363-.578A87.979,87.979,0,1,1,378.15,440h-.12q-1.021.024-2.041.025A87.576,87.576,0,0,1,339.4,432H272V416h43.659a87.922,87.922,0,0,1-13.391-16H232V384h62.036a88.537,88.537,0,0,1-6.042-32H264V336h25.453a87.033,87.033,0,0,1,4.585-16H232Z"/><path d="M133,334.247a8,8,0,0,1-10.654-.59l-9.784-9.783A16.008,16.008,0,1,0,143.8,325.6Z"/><path d="M400,104a8.009,8.009,0,0,0,8-8V64a8,8,0,0,0-16,0V96A8.009,8.009,0,0,0,400,104Z"/><path d="M440,376a24,24,0,0,1-48,0V320H364.281l-13.625,20.438a8,8,0,0,1-4.126,3.152l-17.3,5.766,4.044,20.214A8.015,8.015,0,0,0,341.12,376H360a8,8,0,0,1,7.59,5.47l14.1,42.306a71.745,71.745,0,0,0,62.84-49.736L440,368Zm-64-16H360V344h16Z"/><path d="M424,88v8a24,24,0,0,1-48,0V88H328v8a24,24,0,0,1-48,0V88H232v8a24,24,0,0,1-48,0V88H136v8a23.889,23.889,0,0,1-1.373,7.991A88.271,88.271,0,0,1,203.856,136H480V88Z"/><path d="M272,240a15.887,15.887,0,0,0,15.8-18.4L277,230.247a8,8,0,0,1-10.654-.59l-9.784-9.783A15.941,15.941,0,0,0,272,240Z"/></g></svg>