<?xml version="1.0" encoding="utf-8"?>
<!-- Generator: Adobe Illustrator 23.0.3, SVG Export Plug-In . SVG Version: 6.00 Build 0)  -->
<svg version="1.1" id="Icons" xmlns="http://www.w3.org/2000/svg" xmlns:xlink="http://www.w3.org/1999/xlink" x="0px" y="0px"
	 viewBox="0 0 32 32" style="enable-background:new 0 0 32 32;" xml:space="preserve">
<g>
	<path d="M20,8h-8c-0.6,0-1-0.4-1-1V5c0-1.7,1.3-3,3-3h4c1.7,0,3,1.3,3,3v2C21,7.6,20.6,8,20,8z"/>
</g>
<g>
	<path d="M16,16v-2c-1.7,0-3,1.3-3,3s1.3,3,3,3s3-1.3,3-3h-2C16.4,17,16,16.6,16,16z"/>
	<path d="M26,4h-3.1C23,4.3,23,4.7,23,5v2c0,1.7-1.3,3-3,3h-8c-1.7,0-3-1.3-3-3V5c0-0.3,0-0.7,0.1-1H6C5.4,4,5,4.4,5,5v24
		c0,0.6,0.4,1,1,1h20c0.6,0,1-0.4,1-1V5C27,4.4,26.6,4,26,4z M12,28h-2c-0.6,0-1-0.4-1-1s0.4-1,1-1h2c0.6,0,1,0.4,1,1S12.6,28,12,28
		z M16,25h-6c-0.6,0-1-0.4-1-1s0.4-1,1-1h6c0.6,0,1,0.4,1,1S16.6,25,16,25z M21,17c0,2.8-2.2,5-5,5s-5-2.2-5-5s2.2-5,5-5
		c0-0.6,0.4-1,1-1c2.8,0,5,2.2,5,5C22,16.6,21.6,17,21,17z"/>
	<path d="M18,13.2V15h1.8C19.5,14.1,18.9,13.5,18,13.2z"/>
</g>
</svg>
